<?xml version="1.0" encoding="utf-8"?>
<!-- Generator: Adobe Illustrator 23.0.2, SVG Export Plug-In . SVG Version: 6.00 Build 0)  -->
<svg version="1.1" id="Calque_1" xmlns="http://www.w3.org/2000/svg" xmlns:xlink="http://www.w3.org/1999/xlink" x="0px" y="0px"
	 viewBox="0 0 202 196" style="enable-background:new 0 0 202 196;" xml:space="preserve">
<style type="text/css">
	.st0{fill:url(#SVGID_1_);}
</style>
<g>
	<radialGradient id="SVGID_1_" cx="101.4258" cy="97.3438" r="87.9902" gradientUnits="userSpaceOnUse">
		<stop  offset="0" style="stop-color:#F7EEA4"/>
		<stop  offset="0" style="stop-color:#FAEDCD"/>
		<stop  offset="1" style="stop-color:#F08698"/>
	</radialGradient>
	<path class="st0" d="M189.4,91.8c0,3.7,0,7.3,0,11c-0.1,0.4-0.2,0.9-0.3,1.3c-1,13.6-4.9,26.3-12,37.9
		C163.2,165,143.1,179,116.7,184c-3.2,0.6-6.6,0.9-9.8,1.4c-3.7,0-7.3,0-11,0c-2.1-0.3-4.2-0.5-6.3-0.8
		c-17.2-2.4-32.5-9.2-45.6-20.6C24.7,147,14.3,125.7,13.5,100c-0.8-23.1,6.7-43.5,21.9-60.8c13.6-15.4,30.7-25,51-28.5
		c3.1-0.5,6.3-0.9,9.5-1.3c3.7,0,7.3,0,11,0c0.4,0.1,0.9,0.2,1.3,0.3c15,1.1,28.9,5.8,41.4,14.2c20.9,14.1,33.8,33.5,38.4,58.4
		C188.6,85.4,189,88.6,189.4,91.8z M116.1,97.3c-0.6,0.5-1,0.9-1.4,1.3c-6,5.2-12,10.5-18,15.7c-4.3,3.7-8.6,7.4-12.8,11.2
		c-3.2,2.9-2.3,8,1.7,9.4c2.3,0.8,4.2,0.2,6-1.4c12-10.6,24.1-21.1,36.2-31.7c3.2-2.8,3.1-6.3-0.1-9.1c-7.2-6.3-14.5-12.7-21.7-19
		c-4.9-4.3-9.8-8.6-14.8-12.9c-3-2.6-7.4-1.5-8.8,2c-0.9,2.3-0.3,4.7,1.8,6.5c4.3,3.8,8.6,7.5,12.9,11.3
		C103.4,86.2,109.6,91.7,116.1,97.3z"/>
</g>
</svg>
