<?xml version="1.0" encoding="utf-8"?>
<!-- Generator: Adobe Illustrator 23.0.2, SVG Export Plug-In . SVG Version: 6.00 Build 0)  -->
<svg version="1.1" id="Calque_1" xmlns="http://www.w3.org/2000/svg" xmlns:xlink="http://www.w3.org/1999/xlink" x="0px" y="0px"
	 viewBox="0 0 77 97" style="enable-background:new 0 0 77 97;" xml:space="preserve">
<g>
	<path d="M27.5,77.1c-0.2-1.5-0.5-3-0.7-4.5c-1.2-7.5-2.4-14.9-3.6-22.4c0-0.2,0.1-0.4,0.3-0.6c0.4-0.4,0.8-0.7,1.2-1.1
		c1.8-2,4.1-2,5.9-0.1c0.4,0.4,0.8,0.7,1.2,1.1c0.1,0.1,0.3,0.3,0.3,0.5c1.2,8.6,2.4,17.3,3.7,25.9c0.1,0.8,0.2,1.6,0.4,2.5
		c0-0.4,0-0.7,0-1.1c-0.2-7.6-0.5-15.2-0.7-22.8c0-1.4-0.1-2.9-0.1-4.3c0-0.3,0.1-0.5,0.4-0.7c0.4-0.3,0.8-0.6,1.1-1
		c1.9-2.1,4.2-2.1,6.1,0c0.3,0.3,0.6,0.6,0.9,0.8c0.5,0.3,0.6,0.6,0.6,1.2C44,58,43.8,65.5,43.6,72.9c-0.1,1.8-0.1,3.7-0.1,5.5
		c0.2-1,0.3-2.1,0.5-3.1c1-7.4,2.1-14.8,3.1-22.2c0.1-0.9,0.3-1.9,0.4-2.8c0-0.4,0.2-0.7,0.5-0.9c0.3-0.2,0.6-0.5,0.9-0.8
		c1.9-2.1,4.2-2.1,6.1,0c0.3,0.4,0.7,0.7,1.1,1c0.3,0.2,0.4,0.4,0.3,0.8c-0.6,3.4-1.1,6.8-1.7,10.3c-0.9,5.4-1.8,10.9-2.7,16.3
		c0,0.1,0,0.2,0.1,0.3c0.3-0.9,0.5-1.9,0.8-2.8c2.2-8,4.5-16,6.7-24c0.1-0.5,0.3-0.8,0.7-1.1c0.4-0.3,0.7-0.7,1.1-1.1
		c1.6-1.6,3.7-1.6,5.4,0c0.3,0.2,0.3,0.4,0.2,0.8c-3.4,9.7-6.9,19.4-10.3,29.1c-0.3,1-1.1,1.6-1.9,2.1c-1.7,1-3.5,1.6-5.5,2
		c-6.8,1.4-13.7,1.4-20.4-0.3c-1.5-0.4-2.9-1.1-4.3-1.7c-1.1-0.5-1.7-1.4-2.1-2.6c-3.3-9.4-6.6-18.9-10-28.3
		c-0.2-0.6-0.1-0.9,0.4-1.3c1.6-1.3,3.6-1.3,5.1,0.2c0.5,0.5,1,0.9,1.5,1.4c0.2,0.2,0.3,0.5,0.3,0.7c2.5,8.8,4.9,17.5,7.4,26.3
		C27.3,76.7,27.4,76.9,27.5,77.1C27.5,77.1,27.5,77.1,27.5,77.1z"/>
	<path d="M12.5,46.2c0-1.5,0.2-2.8,0.6-4.1c0.7-2.2,1.9-4.1,3.6-5.7c0.3-0.3,0.6-0.4,1-0.2c6.5,2.8,13.3,3.8,20.4,3.3
		c0.1,0,0.2,0,0.3-0.1c-1.2-0.1-2.4-0.2-3.6-0.3c-4.3-0.5-8.6-1.4-12.5-3.4c-0.6-0.3-1.1-0.7-1.7-1c-0.5-0.3-0.7-0.6-0.6-1.2
		c0.5-4,2.5-7,6.1-8.9c0.3-0.2,0.6-0.2,1,0c4,1.8,8.2,2.4,12.5,2.2c0.2,0,0.3,0,0.5-0.1c-0.8-0.1-1.6-0.1-2.4-0.2
		c-2.9-0.4-5.8-1.1-8.4-2.6c-0.4-0.2-0.5-0.4-0.6-0.9c-0.2-2.2,0.3-4.1,1.6-5.9c0.6-0.9,1.3-1.7,1.9-2.6c1.1-1.5,1.8-3.2,1.9-5.1
		c0-0.2,0-0.3,0.1-0.7c1.8,0.5,3.5,0.9,5.2,1.5c3.5,1.3,6.6,3.2,8.9,6.2c1.5,2,2.5,4.2,2.6,6.8c0,0.4,0.3,0.5,0.6,0.6
		c3.4,1.1,5.9,3.2,7.3,6.5c0.5,1.1,0.7,2.4,1,3.6c0.1,0.3,0.2,0.5,0.5,0.6c4.6,2.4,6.8,6.4,7,11.4c0,0,0,0.1,0,0.1
		c-0.7-0.2-1.4-0.6-2.1-0.7c-2-0.3-3.6,0.5-4.9,2c-0.2,0.2-0.4,0.5-0.7,0.7c-0.7,0.5-1.6,0.6-2.3,0c-0.4-0.3-0.7-0.6-1-0.9
		c-2.3-2.5-5.7-2.5-8.1,0c-0.2,0.2-0.4,0.4-0.6,0.6c-0.9,0.9-2,0.9-2.9,0c-0.2-0.2-0.4-0.5-0.6-0.7c-2.3-2.4-5.7-2.4-8,0
		c-0.2,0.2-0.4,0.4-0.6,0.6c-0.9,0.9-2,0.9-3,0c-0.3-0.3-0.5-0.5-0.8-0.8c-2.2-2.2-5.3-2.2-7.6-0.1c-0.3,0.2-0.5,0.5-0.7,0.8
		c-1,1.1-2.2,1.1-3.3,0c-0.1-0.1-0.2-0.2-0.2-0.3C18,45.6,15.4,44.5,12.5,46.2z M32.3,23.2c0.2-2.6,1.5-4.7,2.4-7
		c0.3-0.9,0.6-1.8,0.8-2.7c0.2-0.8,0.1-1.7,0.2-2.6c-0.1,0-0.1,0-0.2,0c-0.2,1.7-1,3.3-1.9,4.7c-0.5,0.7-0.9,1.3-1.4,2
		c-0.7,1.1-1.2,2.2-1.4,3.4c-0.3,1.5-0.2,1.6,1.2,2.1C32.1,23.1,32.2,23.1,32.3,23.2z M27.5,26.2c-0.4-0.1-0.7-0.5-1.2-0.1
		c-2.5,1.9-3.8,4.5-4.4,7.6c0,0.2,0.1,0.4,0.2,0.5c0.4,0.3,0.9,0.5,1.5,0.7C24.3,31.7,25.5,28.8,27.5,26.2z M14.5,44
		c0.7,0,1.3,0,1.8,0c0.8-2.1,1.6-4.2,2.4-6.2c-0.4-0.3-0.8-0.1-1.2,0.3c-1.3,1.4-2.2,3-2.7,4.9C14.6,43.3,14.6,43.7,14.5,44z"/>
</g>
</svg>
