<?xml version="1.0" encoding="utf-8"?>
<!-- Generator: Adobe Illustrator 23.0.2, SVG Export Plug-In . SVG Version: 6.00 Build 0)  -->
<svg version="1.1" id="Calque_1" xmlns="http://www.w3.org/2000/svg" xmlns:xlink="http://www.w3.org/1999/xlink" x="0px" y="0px"
	 viewBox="0 0 90 87" style="enable-background:new 0 0 90 87;" xml:space="preserve">
<style type="text/css">
	.st0{fill:url(#SVGID_1_);}
	.st1{fill:#EFEFEF;}
</style>
<g>
	
		<radialGradient id="SVGID_1_" cx="44.5375" cy="44.3146" r="37.83" fx="56.7125" fy="80.1318" gradientTransform="matrix(1 0 0 8 0 -310.202)" gradientUnits="userSpaceOnUse">
		<stop  offset="0" style="stop-color:#F7EEA4"/>
		<stop  offset="0" style="stop-color:#FAEDCD"/>
		<stop  offset="1" style="stop-color:#F08698"/>
	</radialGradient>
	<circle class="st0" cx="44.5" cy="44.3" r="37.8"/>
</g>
<g>
	<path class="st1" d="M30.2,22.5c-0.9,0.1-1.6,0.8-1.6,1.7v39.6c0,0.8,0.6,1.6,1.4,1.7l18.1,3.2c0.5,0.1,1,0,1.4-0.4
		c0.4-0.3,0.6-0.8,0.6-1.3V22.7c0-0.5-0.2-0.9-0.6-1.3c-0.4-0.3-0.8-0.5-1.3-0.4L30.2,22.5z M45.4,47.2c-0.7,0-1.3-1.1-1.3-2.4
		c0-1.3,0.6-2.4,1.3-2.4c0.7,0,1.3,1.1,1.3,2.4C46.7,46.2,46.1,47.2,45.4,47.2z"/>
	<polygon class="st1" points="76.3,43.9 62.2,33.5 62.2,38.9 51.2,38.9 51.2,48.9 62.2,48.9 62.2,54.3 	"/>
	<path class="st1" d="M44,44.9c0,1.3,0.6,2.4,1.3,2.4c0.7,0,1.3-1.1,1.3-2.4c0-1.3-0.6-2.4-1.3-2.4C44.6,42.5,44,43.5,44,44.9z"/>
	<path class="st1" d="M61,37.3V23.8c0-0.4-0.1-0.7-0.4-1c-0.2-0.3-0.6-0.4-1-0.4h-8.4v2.7h7v12.2H61z"/>
	<path class="st1" d="M51.2,64.5v2.7h8.4c0.4,0,0.7-0.1,1-0.4c0.3-0.3,0.4-0.6,0.4-1V50.4h-2.7v14.2H51.2z"/>
</g>
</svg>
