<?xml version="1.0" encoding="utf-8"?>
<!-- Generator: Adobe Illustrator 23.0.2, SVG Export Plug-In . SVG Version: 6.00 Build 0)  -->
<svg version="1.1" id="Calque_1" xmlns="http://www.w3.org/2000/svg" xmlns:xlink="http://www.w3.org/1999/xlink" x="0px" y="0px"
	 viewBox="0 0 73 92" style="enable-background:new 0 0 73 92;" xml:space="preserve">
<style type="text/css">
	.st0{fill:#D4011D;}
	.st1{fill:#FE0121;}
	.st2{fill:#A9011A;}
</style>
<g>
	<path class="st0" d="M12,85c-0.7,0-1.4,0-2,0c0-0.4-0.1-0.8-0.1-1.2c0-24.6,0-49.1,0-73.7c0-0.4,0-0.8,0.1-1.2
		c0.1,0.1,0.2,0.1,0.2,0.2c4.7,10.3,9.4,20.6,14,31c1.2,2.8,2.8,5.4,3.6,8.4c0,11.1,0,22.1,0.1,33.2c0,1-0.2,1.4-1.3,1.4
		c-2,0.1-4,0.2-5.9,0.5C17.7,84.1,14.8,84.1,12,85z"/>
	<path class="st0" d="M61.5,84.6c0,0.1,0,0.2,0,0.4c-0.9,0-1.8,0-2.7,0c-0.1-0.5-0.5-0.3-0.8-0.4c-4.3-0.8-8.7-1.2-13.1-1.5
		c-0.6,0-1.2,0-1.5-0.8c-2.6-5.8-5.2-11.6-7.8-17.4c0.6-0.6,0.3-1.3,0.4-1.9c0-11.5,0.1-22.9,0.1-34.4c0.9,1.9,1.8,3.8,2.7,5.7
		c1.7,3.6,3.1,7.3,5,10.7c0.4,1.1,0.8,2.1,1.3,3.2c1.8,4.1,3.7,8.1,5.6,12.2C54.2,68.4,57.8,76.5,61.5,84.6z"/>
	<path class="st1" d="M10,8.4c5.2,0,10.3,0.1,15.5,0.1c1.2,0,1.8,0.3,2.3,1.5c2.7,6.2,5.5,12.4,8.2,18.6c0,11.5,0,22.9-0.1,34.4
		c0,0.6,0.3,1.4-0.4,1.9C33.3,60,31,55,28.7,50.1c-0.3-0.5-0.3-1.2-1-1.5c-0.8-3-2.3-5.6-3.6-8.4c-4.6-10.3-9.3-20.6-14-31
		c0-0.1-0.2-0.2-0.2-0.2C10,8.8,10,8.6,10,8.4z"/>
	<path class="st2" d="M43.7,45c0-11.6,0-23.2,0-34.8c0-1.3,0.3-1.7,1.7-1.7c5.4,0.1,10.8,0.1,16.2,0.1c0,7.4,0,14.8,0,22.1
		c0,17.4,0,34.7,0,52.1c0,0.6,0,1.2-0.1,1.9c-3.7-8.1-7.3-16.2-11-24.3c-1.8-4.1-3.7-8.1-5.6-12.2C44.5,47.1,44.1,46,43.7,45z"/>
</g>
</svg>
