<?xml version="1.0" encoding="utf-8"?>
<!-- Generator: Adobe Illustrator 23.0.2, SVG Export Plug-In . SVG Version: 6.00 Build 0)  -->
<svg version="1.1" id="Calque_1" xmlns="http://www.w3.org/2000/svg" xmlns:xlink="http://www.w3.org/1999/xlink" x="0px" y="0px"
	 viewBox="0 0 69 70" style="enable-background:new 0 0 69 70;" xml:space="preserve">
<style type="text/css">
	.st0{fill:#2B2B2B;}
</style>
<g>
	<path class="st0" d="M56,4c0.9,0.2,1.5,0.9,2.1,1.5c1.6,1.7,3.3,3.4,5,5.1c1.3,1.3,1.3,3,0,4.3c-0.6,0.6-1.2,1.2-1.7,1.8
		c-1.2,1.2-2.8,1.2-4,0c-1.9-1.9-3.7-3.8-5.6-5.8c-1.2-1.3-1.2-2.9,0-4.2c0.6-0.6,1.1-1.1,1.7-1.7c0.5-0.5,1-0.8,1.6-1
		C55.4,4,55.7,4,56,4z"/>
	<path class="st0" d="M10.9,49.8c0-0.5,0.2-0.9,0.5-1.2c3.5-3.6,7.1-7.3,10.6-11c8.1-8.4,16.2-16.8,24.3-25.2c0.8-0.8,1.5-0.8,2.3,0
		c2.4,2.5,4.9,5,7.3,7.6c0.8,0.8,0.8,1.6,0,2.4C44.3,34.5,32.6,46.5,21,58.6c-0.7,0.8-1.5,0.8-2.2,0c-2.5-2.6-4.9-5.1-7.4-7.7
		C11.1,50.6,10.9,50.2,10.9,49.8z"/>
	<path class="st0" d="M5.6,63.1c0.2-0.8,0.3-1.7,0.5-2.7c0.3-1.7,0.7-3.4,1.1-5.1c0.1-0.4,0.2-0.7,0.4-1.1c0.3-0.5,0.9-0.7,1.4-0.4
		c0.3,0.1,0.6,0.4,0.8,0.6c2,2.1,4.1,4.2,6.1,6.3c0.4,0.5,0.9,1,0.6,1.7c-0.2,0.7-0.8,0.9-1.4,1c-2.4,0.5-4.8,1-7.1,1.6
		c-0.2,0-0.3,0.1-0.5,0.1C6.4,65.1,5.6,64.4,5.6,63.1z"/>
</g>
</svg>
