<?xml version="1.0" encoding="utf-8"?>
<!-- Generator: Adobe Illustrator 23.0.2, SVG Export Plug-In . SVG Version: 6.00 Build 0)  -->
<svg version="1.1" id="Calque_1" xmlns="http://www.w3.org/2000/svg" xmlns:xlink="http://www.w3.org/1999/xlink" x="0px" y="0px"
	 viewBox="0 0 80 78" style="enable-background:new 0 0 80 78;" xml:space="preserve">
<style type="text/css">
	.st0{fill:url(#SVGID_1_);}
	.st1{fill:#EFEFEF;}
</style>
<g>
	<g>
		
			<radialGradient id="SVGID_1_" cx="40.1516" cy="39.9122" r="32.1564" fx="50.5007" fy="70.3578" gradientTransform="matrix(1 0 0 8 0 -279.3854)" gradientUnits="userSpaceOnUse">
			<stop  offset="0" style="stop-color:#F7EEA4"/>
			<stop  offset="0" style="stop-color:#FAEDCD"/>
			<stop  offset="1" style="stop-color:#F08698"/>
		</radialGradient>
		<circle class="st0" cx="40.2" cy="39.9" r="32.2"/>
	</g>
	<g>
		<path class="st1" d="M28.3,40.4c0,6.5,5.3,11.8,11.8,11.8c6.5,0,11.8-5.3,11.8-11.8c0-6.5-5.3-11.8-11.8-11.8
			C33.6,28.6,28.3,33.9,28.3,40.4z M48.4,39.7c0.4,4.5-3,8.6-7.5,9c-4.5,0.4-8.6-3-8.9-7.5c-0.4-4.5,3-8.6,7.5-8.9
			C44,31.8,48,35.1,48.4,39.7z"/>
		<path class="st1" d="M56.4,46.9l2-0.1c0.5,0,0.9-0.4,1-0.8l0.6-3.1c0.1-0.5-0.2-1-0.6-1.2l-1.8-0.9c-0.4-0.2-0.7-0.7-0.8-1.2
			c0,0,0-0.2,0-0.8c0-0.2,0-0.2,0-0.2c0-0.2,0.3-0.6,0.7-0.8l1.7-1c0.4-0.2,0.6-0.8,0.5-1.2l-1-3c-0.2-0.4-0.7-0.7-1.1-0.7l-2,0.1
			c-0.5,0-1-0.2-1.2-0.6c-0.2-0.3-0.6-1.5-0.4-1.9l0.9-1.7c0.2-0.4,0.1-1-0.2-1.3l-2.4-2.1c-0.4-0.3-1-0.3-1.3-0.1l-1.6,1.1
			c-0.4,0.3-1,0.3-1.3,0.1c-0.3-0.2-1.3-1-1.3-1.5l-0.1-2c0-0.5-0.4-0.9-0.8-1l-3.1-0.6c-0.5-0.1-1,0.2-1.2,0.6l-0.9,1.8
			c-0.2,0.4-0.7,0.8-1.2,0.8c0,0-0.2,0-0.8,0c-0.2,0-0.2,0-0.2,0c-0.2,0-0.6-0.3-0.8-0.7l-1-1.7c-0.2-0.4-0.8-0.6-1.2-0.5l-3,1
			c-0.4,0.2-0.7,0.7-0.7,1.1l0.1,2c0,0.5-0.2,1-0.6,1.2c-0.3,0.2-1.5,0.6-1.9,0.4l-1.7-0.9c-0.4-0.2-1-0.1-1.3,0.2l-2.1,2.4
			c-0.3,0.4-0.3,1,0,1.3l1.1,1.6c0.3,0.4,0.3,1,0.1,1.3c-0.2,0.3-1,1.3-1.5,1.3l-2,0.1c-0.5,0-0.9,0.4-1,0.8l-0.6,3.1
			c-0.1,0.4,0.2,1,0.6,1.2l1.8,0.9c0.4,0.2,0.7,0.7,0.8,1.2c0,0,0,0.2,0.1,0.8c0,0.2,0,0.2,0,0.2c0,0.2-0.3,0.6-0.7,0.8l-1.7,1
			c-0.4,0.2-0.6,0.8-0.5,1.2l1,3c0.2,0.4,0.7,0.7,1.1,0.7l2-0.1c0.5,0,1,0.2,1.2,0.6c0.2,0.3,0.6,1.5,0.4,1.9l-0.9,1.7
			c-0.2,0.4-0.1,1,0.2,1.3l2.4,2.1c0.4,0.3,1,0.3,1.3,0l1.6-1.1c0.4-0.3,1-0.3,1.3-0.1c0.3,0.2,1.3,1,1.3,1.5l0.1,2
			c0,0.5,0.4,0.9,0.8,1l3.1,0.6c0.5,0.1,1-0.2,1.2-0.6l0.9-1.8c0.2-0.4,0.7-0.7,1.2-0.8c0,0,0.2,0,0.8,0c0.2,0,0.2,0,0.2,0
			c0.2,0,0.6,0.3,0.8,0.7l1,1.7c0.2,0.4,0.8,0.6,1.2,0.5l3-1c0.4-0.2,0.7-0.7,0.7-1.1l-0.1-2c0-0.5,0.2-1,0.6-1.2
			c0.3-0.2,1.5-0.6,1.9-0.4l1.7,0.9c0.4,0.2,1,0.1,1.3-0.2l2.1-2.4c0.3-0.4,0.3-1,0-1.3L55,49.6c-0.3-0.4-0.3-1-0.1-1.3
			C55.1,47.9,55.9,47,56.4,46.9z M40.2,53.9c-7.4,0-13.5-6-13.5-13.5c0-7.4,6-13.5,13.5-13.5c7.4,0,13.5,6,13.5,13.5
			C53.6,47.8,47.6,53.9,40.2,53.9z"/>
	</g>
</g>
</svg>
